<?xml version="1.0" standalone="yes"?>

<svg version="1.1" viewBox="0.0 0.0 960.0 720.0" fill="none" stroke="none" stroke-linecap="square" stroke-miterlimit="10" xmlns="http://www.w3.org/2000/svg" xmlns:xlink="http://www.w3.org/1999/xlink"><clipPath id="p.0"><path d="m0 0l960.0 0l0 720.0l-960.0 0l0 -720.0z" clip-rule="nonzero"></path></clipPath><g clip-path="url(#p.0)"><path fill="#000000" fill-opacity="0.0" d="m0 0l960.0 0l0 720.0l-960.0 0z" fill-rule="evenodd"></path><path fill="#000000" fill-opacity="0.0" d="m622.39105 330.25723l248.0315 0l0 156.15747l-248.0315 0z" fill-rule="evenodd"></path><path stroke="#ff9900" stroke-width="3.0" stroke-linejoin="round" stroke-linecap="butt" d="m622.39105 330.25723l248.0315 0l0 156.15747l-248.0315 0z" fill-rule="evenodd"></path><path fill="#000000" d="m733.73285 345.14597l2.53125 0l0 -1.78125l-2.53125 0l0 1.78125zm0 1.1875l0 1.78125l2.53125 0l0 -1.78125l-2.53125 0zm-3.640625 0l0 1.78125l2.375 0l0 -1.78125l-2.375 0zm0 -1.1875l2.375 0l0 -1.78125l-2.375 0l0 1.78125zm-2.140625 7.28125l0 -1.40625l4.515625 0l0 -1.71875l-1.84375 0l-1.78125 0l0 -7.125l8.671875 0l0 7.125l-3.78125 0l0 1.71875l4.828125 0l0 1.40625l-4.53125 0q1.859375 2.296875 4.75 3.703125l-0.59375 1.5625q-2.671875 -1.40625 -4.453125 -3.859375l0 5.046875l-1.265625 0l0 -4.75q-1.484375 2.375 -4.375 3.859375l-0.59375 -1.40625q3.046875 -1.5625 4.671875 -4.15625l-4.21875 0zm-6.3125 -7.640625l6.453125 0l0 1.40625l-6.453125 0l0 -1.40625zm5.421875 -1.1875l-4.609375 0l0 -1.421875l4.609375 0l0 1.421875zm-4.609375 5.265625l0 -1.40625l4.609375 0l0 1.40625l-4.609375 0zm0 1.265625l4.609375 0l0 1.40625l-4.609375 0l0 -1.40625zm1.109375 3.859375l0 2.671875l2.453125 0l0 -2.671875l-2.453125 0zm0 3.859375l0 1.03125l-1.25 0l0 -6.078125l4.96875 0l0 5.9375l-1.265625 0l0 -0.890625l-2.453125 0zm23.234375 -4.609375l-1.625 -1.859375l0 7.4375l-1.484375 0l0 -7.0625q-1.125 2.078125 -2.375 3.1875l-0.96875 -1.40625q2.515625 -2.453125 3.34375 -5.5625l-2.75 0l0 -1.40625l2.75 0l0 -2.078125l-2.3125 0.359375l-0.4375 -1.484375q3.5625 -0.59375 5.71875 -1.40625l1.03125 1.40625q0.078125 0.53125 -0.4375 0.234375l-2.078125 0.59375l0 2.375l2.671875 0l0 1.40625l-2.671875 0l0 1.484375q1.1875 0.8125 2.734375 2.453125l-1.109375 1.328125zm6.609375 -1.703125l0 1.921875l3.109375 0l0 1.421875l-3.109375 0l0 2.0l4.15625 0l0 1.40625l-10.546875 0l0 -1.40625l4.90625 0l0 -2.0l-3.34375 0l0 -1.421875l3.34375 0l0 -1.921875l-3.640625 0l0 -1.40625l8.765625 0l0 1.40625l-3.640625 0zm1.703125 -7.28125l-4.671875 0l0 2.671875l4.671875 0l0 -2.671875zm0 4.75l0 -0.65625l-4.671875 0l0 0.734375l-1.484375 0l0 -6.234375l7.640625 0l0 6.15625l-1.484375 0z" fill-rule="nonzero"></path><path fill="#000000" d="m769.8422 352.4116l1.796875 0.453125q-0.5625 2.21875 -2.03125 3.390625q-1.46875 1.15625 -3.59375 1.15625q-2.203125 0 -3.578125 -0.890625q-1.375 -0.90625 -2.09375 -2.59375q-0.71875 -1.703125 -0.71875 -3.65625q0 -2.125 0.796875 -3.703125q0.8125 -1.578125 2.3125 -2.390625q1.5 -0.828125 3.296875 -0.828125q2.046875 0 3.4375 1.046875q1.390625 1.03125 1.9375 2.90625l-1.765625 0.421875q-0.46875 -1.484375 -1.375 -2.15625q-0.90625 -0.6875 -2.265625 -0.6875q-1.5625 0 -2.625 0.75q-1.046875 0.75 -1.484375 2.03125q-0.421875 1.265625 -0.421875 2.609375q0 1.734375 0.5 3.03125q0.515625 1.28125 1.578125 1.921875q1.078125 0.640625 2.3125 0.640625q1.515625 0 2.5625 -0.859375q1.046875 -0.875 1.421875 -2.59375z" fill-rule="nonzero"></path><path fill="#0000ff" d="m633.874 399.15222l0 0c0 -12.680786 9.772156 -22.960632 21.826782 -22.960632l0 0c5.7888184 0 11.340515 2.4190674 15.433838 6.7250366c4.0933228 4.3059387 6.3929443 10.146057 6.3929443 16.235596l0 0c0 12.680817 -9.772217 22.960632 -21.826782 22.960632l0 0c-12.054626 0 -21.826782 -10.279816 -21.826782 -22.960632z" fill-rule="evenodd"></path><path fill="#0000ff" d="m688.9921 399.15222l0 0c0 -12.680786 9.772156 -22.960632 21.826782 -22.960632l0 0c5.7888184 0 11.340515 2.4190674 15.433838 6.7250366c4.0933228 4.3059387 6.3929443 10.146057 6.3929443 16.235596l0 0c0 12.680817 -9.772217 22.960632 -21.826782 22.960632l0 0c-12.054626 0 -21.826782 -10.279816 -21.826782 -22.960632z" fill-rule="evenodd"></path><path fill="#0000ff" d="m744.1102 399.15222l0 0c0 -12.680786 9.772156 -22.960632 21.826782 -22.960632l0 0c5.7888184 0 11.340515 2.4190674 15.433838 6.7250366c4.0933228 4.3059387 6.3929443 10.146057 6.3929443 16.235596l0 0c0 12.680817 -9.772217 22.960632 -21.826782 22.960632l0 0c-12.054626 0 -21.826782 -10.279816 -21.826782 -22.960632z" fill-rule="evenodd"></path><path fill="#0000ff" d="m799.22833 399.15222l0 0c0 -12.680786 9.772217 -22.960632 21.826782 -22.960632l0 0c5.7888184 0 11.340576 2.4190674 15.433838 6.7250366c4.0933228 4.3059387 6.3929443 10.146057 6.3929443 16.235596l0 0c0 12.680817 -9.772156 22.960632 -21.826782 22.960632l0 0c-12.054565 0 -21.826782 -10.279816 -21.826782 -22.960632z" fill-rule="evenodd"></path><path fill="#0000ff" d="m769.37006 449.67978l0 0c0 -12.680786 9.772217 -22.960632 21.826782 -22.960632l0 0c5.7888184 0 11.340576 2.4190674 15.433899 6.7250366c4.0932617 4.3059387 6.3928833 10.146057 6.3928833 16.235596l0 0c0 12.680817 -9.772156 22.960632 -21.826782 22.960632l0 0c-12.054565 0 -21.826782 -10.279816 -21.826782 -22.960632z" fill-rule="evenodd"></path><path fill="#0000ff" d="m711.9554 449.67978l0 0c0 -12.680786 9.772156 -22.960632 21.826782 -22.960632l0 0c5.7888184 0 11.340515 2.4190674 15.433838 6.7250366c4.0933228 4.3059387 6.3929443 10.146057 6.3929443 16.235596l0 0c0 12.680817 -9.772217 22.960632 -21.826782 22.960632l0 0c-12.054626 0 -21.826782 -10.279816 -21.826782 -22.960632z" fill-rule="evenodd"></path><path fill="#0000ff" d="m654.5407 449.67978l0 0c0 -12.680786 9.772156 -22.960632 21.826721 -22.960632l0 0c5.7888184 0 11.340576 2.4190674 15.433899 6.7250366c4.0933228 4.3059387 6.3928833 10.146057 6.3928833 16.235596l0 0c0 12.680817 -9.772156 22.960632 -21.826782 22.960632l0 0c-12.054565 0 -21.826721 -10.279816 -21.826721 -22.960632z" fill-rule="evenodd"></path><path fill="#000000" fill-opacity="0.0" d="m52.82152 330.25723l248.03151 0l0 156.15747l-248.03151 0z" fill-rule="evenodd"></path><path stroke="#ff9900" stroke-width="3.0" stroke-linejoin="round" stroke-linecap="butt" d="m52.82152 330.25723l248.03151 0l0 156.15747l-248.03151 0z" fill-rule="evenodd"></path><path fill="#000000" d="m164.67798 345.14597l2.53125 0l0 -1.78125l-2.53125 0l0 1.78125zm0 1.1875l0 1.78125l2.53125 0l0 -1.78125l-2.53125 0zm-3.640625 0l0 1.78125l2.375 0l0 -1.78125l-2.375 0zm0 -1.1875l2.375 0l0 -1.78125l-2.375 0l0 1.78125zm-2.140625 7.28125l0 -1.40625l4.515625 0l0 -1.71875l-1.84375 0l-1.78125 0l0 -7.125l8.671875 0l0 7.125l-3.78125 0l0 1.71875l4.828125 0l0 1.40625l-4.53125 0q1.859375 2.296875 4.75 3.703125l-0.59375 1.5625q-2.671875 -1.40625 -4.453125 -3.859375l0 5.046875l-1.265625 0l0 -4.75q-1.484375 2.375 -4.375 3.859375l-0.59375 -1.40625q3.046875 -1.5625 4.671875 -4.15625l-4.21875 0zm-6.3125 -7.640625l6.453125 0l0 1.40625l-6.453125 0l0 -1.40625zm5.421875 -1.1875l-4.609375 0l0 -1.421875l4.609375 0l0 1.421875zm-4.609375 5.265625l0 -1.40625l4.609375 0l0 1.40625l-4.609375 0zm0 1.265625l4.609375 0l0 1.40625l-4.609375 0l0 -1.40625zm1.109375 3.859375l0 2.671875l2.453125 0l0 -2.671875l-2.453125 0zm0 3.859375l0 1.03125l-1.25 0l0 -6.078125l4.96875 0l0 5.9375l-1.265625 0l0 -0.890625l-2.453125 0zm23.234375 -4.609375l-1.625 -1.859375l0 7.4375l-1.484375 0l0 -7.0625q-1.125 2.078125 -2.375 3.1875l-0.96875 -1.40625q2.515625 -2.453125 3.34375 -5.5625l-2.75 0l0 -1.40625l2.75 0l0 -2.078125l-2.3125 0.359375l-0.4375 -1.484375q3.5625 -0.59375 5.71875 -1.40625l1.03125 1.40625q0.078125 0.53125 -0.4375 0.234375l-2.078125 0.59375l0 2.375l2.671875 0l0 1.40625l-2.671875 0l0 1.484375q1.1875 0.8125 2.734375 2.453125l-1.109375 1.328125zm6.609375 -1.703125l0 1.921875l3.109375 0l0 1.421875l-3.109375 0l0 2.0l4.15625 0l0 1.40625l-10.546875 0l0 -1.40625l4.90625 0l0 -2.0l-3.34375 0l0 -1.421875l3.34375 0l0 -1.921875l-3.640625 0l0 -1.40625l8.765625 0l0 1.40625l-3.640625 0zm1.703125 -7.28125l-4.671875 0l0 2.671875l4.671875 0l0 -2.671875zm0 4.75l0 -0.65625l-4.671875 0l0 0.734375l-1.484375 0l0 -6.234375l7.640625 0l0 6.15625l-1.484375 0z" fill-rule="nonzero"></path><path fill="#000000" d="m189.58423 357.17722l5.234375 -13.59375l1.9375 0l5.5625 13.59375l-2.046875 0l-1.59375 -4.125l-5.6875 0l-1.484375 4.125l-1.921875 0zm3.921875 -5.578125l4.609375 0l-1.40625 -3.78125q-0.65625 -1.703125 -0.96875 -2.8125q-0.265625 1.3125 -0.734375 2.59375l-1.5 4.0z" fill-rule="nonzero"></path><path fill="#00ff00" d="m66.60105 399.15222l0 0c0 -12.680786 9.772179 -22.960632 21.826767 -22.960632l0 0c5.788826 0 11.340546 2.4190674 15.433861 6.7250366c4.093315 4.3059387 6.392914 10.146057 6.392914 16.235596l0 0c0 12.680817 -9.772179 22.960632 -21.826775 22.960632l0 0c-12.054588 0 -21.826767 -10.279816 -21.826767 -22.960632z" fill-rule="evenodd"></path><path fill="#00ff00" d="m121.72179 399.15222l0 0c0 -12.680786 9.772171 -22.960632 21.826767 -22.960632l0 0c5.7888184 0 11.340546 2.4190674 15.433868 6.7250366c4.0933075 4.3059387 6.392914 10.146057 6.392914 16.235596l0 0c0 12.680817 -9.772186 22.960632 -21.826782 22.960632l0 0c-12.054596 0 -21.826767 -10.279816 -21.826767 -22.960632z" fill-rule="evenodd"></path><path fill="#00ff00" d="m176.84251 399.15222l0 0c0 -12.680786 9.772186 -22.960632 21.826782 -22.960632l0 0c5.7888184 0 11.340546 2.4190674 15.433853 6.7250366c4.0933075 4.3059387 6.392914 10.146057 6.392914 16.235596l0 0c0 12.680817 -9.772186 22.960632 -21.826767 22.960632l0 0c-12.054596 0 -21.826782 -10.279816 -21.826782 -22.960632z" fill-rule="evenodd"></path><path fill="#00ff00" d="m231.96326 399.15222l0 0c0 -12.680786 9.772171 -22.960632 21.826767 -22.960632l0 0c5.7888336 0 11.340561 2.4190674 15.433853 6.7250366c4.0933228 4.3059387 6.392914 10.146057 6.392914 16.235596l0 0c0 12.680817 -9.772186 22.960632 -21.826767 22.960632l0 0c-12.054596 0 -21.826767 -10.279816 -21.826767 -22.960632z" fill-rule="evenodd"></path><path fill="#00ff00" d="m199.8084 449.67978l0 0c0 -12.680786 9.772186 -22.960632 21.826782 -22.960632l0 0c5.7888184 0 11.34053 2.4190674 15.433853 6.7250366c4.0933075 4.3059387 6.392914 10.146057 6.392914 16.235596l0 0c0 12.680817 -9.772186 22.960632 -21.826767 22.960632l0 0c-12.054596 0 -21.826782 -10.279816 -21.826782 -22.960632z" fill-rule="evenodd"></path><path fill="#00ff00" d="m137.80052 449.67978l0 0c0 -12.680786 9.772186 -22.960632 21.826782 -22.960632l0 0c5.7888184 0 11.34053 2.4190674 15.433853 6.7250366c4.0933075 4.3059387 6.392914 10.146057 6.392914 16.235596l0 0c0 12.680817 -9.772186 22.960632 -21.826767 22.960632l0 0c-12.054596 0 -21.826782 -10.279816 -21.826782 -22.960632z" fill-rule="evenodd"></path><path fill="#00ff00" d="m75.79265 449.67978l0 0c0 -12.680786 9.772179 -22.960632 21.826775 -22.960632l0 0c5.7888184 0 11.340546 2.4190674 15.433861 6.7250366c4.0933075 4.3059387 6.392914 10.146057 6.392914 16.235596l0 0c0 12.680817 -9.772179 22.960632 -21.826775 22.960632l0 0c-12.054596 0 -21.826775 -10.279816 -21.826775 -22.960632z" fill-rule="evenodd"></path><path fill="#000000" fill-opacity="0.0" d="m337.6063 330.25723l248.03152 0l0 156.15747l-248.03152 0z" fill-rule="evenodd"></path><path stroke="#ff9900" stroke-width="3.0" stroke-linejoin="round" stroke-linecap="butt" d="m337.6063 330.25723l248.03152 0l0 156.15747l-248.03152 0z" fill-rule="evenodd"></path><path fill="#000000" d="m449.46277 345.14597l2.53125 0l0 -1.78125l-2.53125 0l0 1.78125zm0 1.1875l0 1.78125l2.53125 0l0 -1.78125l-2.53125 0zm-3.640625 0l0 1.78125l2.375 0l0 -1.78125l-2.375 0zm0 -1.1875l2.375 0l0 -1.78125l-2.375 0l0 1.78125zm-2.140625 7.28125l0 -1.40625l4.515625 0l0 -1.71875l-1.84375 0l-1.78125 0l0 -7.125l8.671875 0l0 7.125l-3.78125 0l0 1.71875l4.828125 0l0 1.40625l-4.53125 0q1.859375 2.296875 4.75 3.703125l-0.59375 1.5625q-2.671875 -1.40625 -4.453125 -3.859375l0 5.046875l-1.265625 0l0 -4.75q-1.484375 2.375 -4.375 3.859375l-0.59375 -1.40625q3.046875 -1.5625 4.671875 -4.15625l-4.21875 0zm-6.3125 -7.640625l6.453125 0l0 1.40625l-6.453125 0l0 -1.40625zm5.421875 -1.1875l-4.609375 0l0 -1.421875l4.609375 0l0 1.421875zm-4.609375 5.265625l0 -1.40625l4.609375 0l0 1.40625l-4.609375 0zm0 1.265625l4.609375 0l0 1.40625l-4.609375 0l0 -1.40625zm1.109375 3.859375l0 2.671875l2.453125 0l0 -2.671875l-2.453125 0zm0 3.859375l0 1.03125l-1.25 0l0 -6.078125l4.96875 0l0 5.9375l-1.265625 0l0 -0.890625l-2.453125 0zm23.234375 -4.609375l-1.625 -1.859375l0 7.4375l-1.484375 0l0 -7.0625q-1.125 2.078125 -2.375 3.1875l-0.96875 -1.40625q2.515625 -2.453125 3.34375 -5.5625l-2.75 0l0 -1.40625l2.75 0l0 -2.078125l-2.3125 0.359375l-0.4375 -1.484375q3.5625 -0.59375 5.71875 -1.40625l1.03125 1.40625q0.078125 0.53125 -0.4375 0.234375l-2.078125 0.59375l0 2.375l2.671875 0l0 1.40625l-2.671875 0l0 1.484375q1.1875 0.8125 2.734375 2.453125l-1.109375 1.328125zm6.609375 -1.703125l0 1.921875l3.109375 0l0 1.421875l-3.109375 0l0 2.0l4.15625 0l0 1.40625l-10.546875 0l0 -1.40625l4.90625 0l0 -2.0l-3.34375 0l0 -1.421875l3.34375 0l0 -1.921875l-3.640625 0l0 -1.40625l8.765625 0l0 1.40625l-3.640625 0zm1.703125 -7.28125l-4.671875 0l0 2.671875l4.671875 0l0 -2.671875zm0 4.75l0 -0.65625l-4.671875 0l0 0.734375l-1.484375 0l0 -6.234375l7.640625 0l0 6.15625l-1.484375 0z" fill-rule="nonzero"></path><path fill="#000000" d="m475.7909 357.17722l0 -13.59375l5.109375 0q1.546875 0 2.484375 0.40625q0.953125 0.40625 1.484375 1.265625q0.53125 0.859375 0.53125 1.796875q0 0.875 -0.46875 1.65625q-0.46875 0.765625 -1.4375 1.234375q1.234375 0.359375 1.890625 1.234375q0.671875 0.875 0.671875 2.0625q0 0.953125 -0.40625 1.78125q-0.390625 0.8125 -0.984375 1.265625q-0.59375 0.4375 -1.5 0.671875q-0.890625 0.21875 -2.1875 0.21875l-5.1875 0zm1.796875 -7.890625l2.9375 0q1.203125 0 1.71875 -0.15625q0.6875 -0.203125 1.03125 -0.671875q0.359375 -0.46875 0.359375 -1.1875q0 -0.671875 -0.328125 -1.1875q-0.328125 -0.515625 -0.9375 -0.703125q-0.59375 -0.203125 -2.0625 -0.203125l-2.71875 0l0 4.109375zm0 6.28125l3.390625 0q0.875 0 1.21875 -0.0625q0.625 -0.109375 1.046875 -0.359375q0.421875 -0.265625 0.6875 -0.765625q0.265625 -0.5 0.265625 -1.140625q0 -0.765625 -0.390625 -1.328125q-0.390625 -0.5625 -1.078125 -0.78125q-0.6875 -0.234375 -1.984375 -0.234375l-3.15625 0l0 4.671875z" fill-rule="nonzero"></path><path fill="#ff0000" d="m358.2756 408.33597l0 0c0 -12.680817 9.772156 -22.960632 21.826752 -22.960632l0 0c5.7888184 0 11.340546 2.4190369 15.433868 6.725006c4.0933228 4.3059387 6.392914 10.146088 6.392914 16.235626l0 0c0 12.680786 -9.772186 22.960632 -21.826782 22.960632l0 0c-12.054596 0 -21.826752 -10.279846 -21.826752 -22.960632z" fill-rule="evenodd"></path><path fill="#ff0000" d="m422.58267 408.33597l0 0c0 -12.680817 9.772186 -22.960632 21.826782 -22.960632l0 0c5.7888184 0 11.340546 2.4190369 15.433838 6.725006c4.0933228 4.3059387 6.392914 10.146088 6.392914 16.235626l0 0c0 12.680786 -9.772156 22.960632 -21.826752 22.960632l0 0c-12.054596 0 -21.826782 -10.279846 -21.826782 -22.960632z" fill-rule="evenodd"></path><path fill="#ff0000" d="m486.88977 408.33597l0 0c0 -12.680817 9.772186 -22.960632 21.826752 -22.960632l0 0c5.788849 0 11.340546 2.4190369 15.433868 6.725006c4.0933228 4.3059387 6.3929443 10.146088 6.3929443 16.235626l0 0c0 12.680786 -9.772217 22.960632 -21.826813 22.960632l0 0c-12.054565 0 -21.826752 -10.279846 -21.826752 -22.960632z" fill-rule="evenodd"></path><path fill="#ff0000" d="m392.72702 454.25723l0 0c0 -12.680817 9.772186 -22.960632 21.826782 -22.960632l0 0c5.7888184 0 11.340546 2.4190369 15.433868 6.725006c4.093292 4.3059387 6.392914 10.146088 6.392914 16.235626l0 0c0 12.680786 -9.772186 22.960602 -21.826782 22.960602l0 0c-12.054596 0 -21.826782 -10.279816 -21.826782 -22.960602z" fill-rule="evenodd"></path><path fill="#ff0000" d="m452.44095 454.25723l0 0c0 -12.680817 9.772186 -22.960632 21.826782 -22.960632l0 0c5.7888184 0 11.340515 2.4190369 15.433838 6.725006c4.0933228 4.3059387 6.392914 10.146088 6.392914 16.235626l0 0c0 12.680786 -9.772186 22.960602 -21.826752 22.960602l0 0c-12.054596 0 -21.826782 -10.279816 -21.826782 -22.960602z" fill-rule="evenodd"></path><path fill="#ff0000" d="m512.15485 454.25723l0 0c0 -12.680817 9.772217 -22.960632 21.826782 -22.960632l0 0c5.7888184 0 11.340515 2.4190369 15.433838 6.725006c4.0933228 4.3059387 6.3929443 10.146088 6.3929443 16.235626l0 0c0 12.680786 -9.772217 22.960602 -21.826782 22.960602l0 0c-12.054565 0 -21.826782 -10.279816 -21.826782 -22.960602z" fill-rule="evenodd"></path><path fill="#00ff00" d="m213.58792 160.29921l0 0c0 -12.680801 9.772186 -22.960632 21.826782 -22.960632l0 0c5.7888184 0 11.340546 2.4190674 15.433853 6.7250214c4.0933075 4.305954 6.3928986 10.146072 6.3928986 16.235611l0 0c0 12.680801 -9.772171 22.960632 -21.826752 22.960632l0 0c-12.054596 0 -21.826782 -10.279831 -21.826782 -22.960632z" fill-rule="evenodd"></path><path fill="#00ff00" d="m271.00262 151.12599l0 0c0 -12.680817 9.772186 -22.960632 21.826782 -22.960632l0 0c5.7888184 0 11.340546 2.4190521 15.433838 6.725006c4.0933228 4.305954 6.392914 10.146088 6.392914 16.235626l0 0c0 12.680801 -9.772156 22.960617 -21.826752 22.960617l0 0c-12.054596 0 -21.826782 -10.279816 -21.826782 -22.960617z" fill-rule="evenodd"></path><path fill="#ff0000" d="m341.62598 160.29921l0 0c0 -12.680801 9.772186 -22.960632 21.826782 -22.960632l0 0c5.7888184 0 11.340546 2.4190674 15.433868 6.7250214c4.093292 4.305954 6.392914 10.146072 6.392914 16.235611l0 0c0 12.680801 -9.772186 22.960632 -21.826782 22.960632l0 0c-12.054596 0 -21.826782 -10.279831 -21.826782 -22.960632z" fill-rule="evenodd"></path><path fill="#0000ff" d="m305.45145 197.04724l0 0c0 -12.680801 9.772186 -22.960632 21.826782 -22.960632l0 0c5.7888184 0 11.340546 2.4190674 15.433838 6.7250214c4.0933228 4.305954 6.392914 10.146072 6.392914 16.235611l0 0c0 12.680801 -9.772186 22.960632 -21.826752 22.960632l0 0c-12.054596 0 -21.826782 -10.279831 -21.826782 -22.960632z" fill-rule="evenodd"></path><path fill="#0000ff" d="m241.14436 213.12335l0 0c0 -12.680801 9.772171 -22.960617 21.826767 -22.960617l0 0c5.7888184 0 11.340546 2.4190521 15.433868 6.725006c4.093292 4.305954 6.392914 10.146088 6.392914 16.235611l0 0c0 12.680817 -9.772186 22.960632 -21.826782 22.960632l0 0c-12.054596 0 -21.826767 -10.279816 -21.826767 -22.960632z" fill-rule="evenodd"></path><path fill="#ff0000" d="m300.8517 256.75854l0 0c0 -12.680817 9.772156 -22.960648 21.826752 -22.960648l0 0c5.7888184 0 11.340546 2.4190674 15.433868 6.7250214c4.0933228 4.305954 6.392914 10.146072 6.392914 16.235626l0 0c0 12.680786 -9.772186 22.960602 -21.826782 22.960602l0 0c-12.054596 0 -21.826752 -10.279816 -21.826752 -22.960602z" fill-rule="evenodd"></path><path fill="#00ff00" d="m498.3727 160.29921l0 0c0 -12.680801 9.772156 -22.960632 21.826752 -22.960632l0 0c5.7888184 0 11.340576 2.4190674 15.433899 6.7250214c4.0932617 4.305954 6.3928833 10.146072 6.3928833 16.235611l0 0c0 12.680801 -9.772156 22.960632 -21.826782 22.960632l0 0c-12.054596 0 -21.826752 -10.279831 -21.826752 -22.960632z" fill-rule="evenodd"></path><path fill="#0000ff" d="m613.2021 167.2021l0 0c0 -12.680801 9.772217 -22.960632 21.826782 -22.960632l0 0c5.7888184 0 11.340576 2.4190521 15.433838 6.725006c4.0933228 4.305954 6.3929443 10.146088 6.3929443 16.235626l0 0c0 12.680801 -9.772217 22.960632 -21.826782 22.960632l0 0c-12.054565 0 -21.826782 -10.279831 -21.826782 -22.960632z" fill-rule="evenodd"></path><path fill="#ff0000" d="m498.3714 224.60367l0 0c0 -12.680801 9.772156 -22.960617 21.826782 -22.960617l0 0c5.7888184 0 11.340515 2.4190521 15.433838 6.725006c4.0933228 4.305954 6.3929443 10.146072 6.3929443 16.235611l0 0c0 12.680817 -9.772217 22.960632 -21.826782 22.960632l0 0c-12.054626 0 -21.826782 -10.279816 -21.826782 -22.960632z" fill-rule="evenodd"></path><path fill="#00ff00" d="m555.7874 167.2021l0 0c0 -12.680801 9.772156 -22.960632 21.826782 -22.960632l0 0c5.7888184 0 11.340515 2.4190521 15.433838 6.725006c4.0933228 4.305954 6.3928833 10.146088 6.3928833 16.235626l0 0c0 12.680801 -9.772156 22.960632 -21.826721 22.960632l0 0c-12.054626 0 -21.826782 -10.279831 -21.826782 -22.960632z" fill-rule="evenodd"></path><path fill="#00ff00" d="m613.2021 229.20998l0 0c0 -12.680801 9.772217 -22.960632 21.826782 -22.960632l0 0c5.7888184 0 11.340576 2.4190521 15.433838 6.725006c4.0933228 4.305954 6.3929443 10.146088 6.3929443 16.235626l0 0c0 12.680801 -9.772217 22.960632 -21.826782 22.960632l0 0c-12.054565 0 -21.826782 -10.279831 -21.826782 -22.960632z" fill-rule="evenodd"></path><path fill="#ff0000" d="m555.7861 236.08661l0 0c0 -12.680801 9.772217 -22.960617 21.826782 -22.960617l0 0c5.7888184 0 11.340576 2.4190521 15.433838 6.725006c4.0933228 4.305954 6.3929443 10.146072 6.3929443 16.235611l0 0c0 12.680817 -9.772156 22.960632 -21.826782 22.960632l0 0c-12.054565 0 -21.826782 -10.279816 -21.826782 -22.960632z" fill-rule="evenodd"></path><path fill="#ffff00" d="m427.17847 569.1076l82.677185 0l0 45.921265l-82.677185 0z" fill-rule="evenodd"></path><path stroke="#000000" stroke-width="1.0" stroke-linejoin="round" stroke-linecap="butt" d="m427.17847 569.1076l82.677185 0l0 45.921265l-82.677185 0z" fill-rule="evenodd"></path><path fill="#000000" d="m462.14206 594.2382q1.25 -1.9375 2.21875 -4.75l1.40625 0.8125q0.53125 0.296875 -0.140625 0.453125q-1.109375 2.734375 -2.671875 5.109375q1.625 2.3125 2.453125 2.3125q0.65625 0 0.890625 -1.78125l1.40625 0.734375q-0.59375 2.96875 -1.640625 2.96875q-2.078125 0 -4.15625 -3.1875q-2.078125 2.296875 -4.8125 3.640625l-0.890625 -1.40625q3.484375 -1.71875 4.890625 -3.640625q-1.03125 -2.53125 -1.03125 -6.6875l0 -0.671875l-6.3125 0l0 2.609375l4.75 0l-0.15625 5.046875q-0.0625 1.40625 -1.109375 1.40625l-1.921875 0l-0.234375 -1.40625l1.265625 0q0.59375 0 0.59375 -0.59375l0.15625 -3.046875l-3.34375 0l0 2.15625q0 3.703125 -1.859375 6.078125l-1.265625 -1.03125q1.640625 -2.015625 1.640625 -4.828125l0 -7.796875l7.796875 0l0 -3.1875l1.40625 0q0.59375 0.078125 0.078125 0.4375l0 2.75l5.640625 0l0 1.40625l-5.640625 0l0 0.671875q0 3.484375 0.59375 5.421875zm1.1875 -10.46875q1.1875 0.59375 2.078125 1.484375l-1.125 1.109375q-0.734375 -0.8125 -2.0 -1.546875l1.046875 -1.046875zm6.59375 10.6875l0 -1.40625l7.359375 0l0 -1.640625l-3.796875 0l0 0.671875l-1.484375 0l0 -7.9375l11.953125 0l0 7.796875l-1.484375 0l0 -0.53125l-3.703125 0l0 1.640625l7.1875 0l0 1.40625l-6.828125 0q2.828125 2.75 7.125 3.9375l-0.65625 1.703125q-4.6875 -1.78125 -6.828125 -4.234375l0 4.90625l-1.484375 0l0 -4.828125q-2.078125 2.828125 -6.6875 4.234375l-0.8125 -1.640625q4.828125 -1.1875 7.125 -4.078125l-6.984375 0zm3.5625 -5.9375l0 1.484375l3.796875 0l0 -1.484375l-3.796875 0zm0 -2.96875l0 1.5625l3.796875 0l0 -1.5625l-3.796875 0zm8.984375 0l-3.703125 0l0 1.5625l3.703125 0l0 -1.5625zm0 2.96875l-3.703125 0l0 1.484375l3.703125 0l0 -1.484375z" fill-rule="nonzero"></path><path fill="#000000" fill-opacity="0.0" d="m427.17847 592.06824l-267.55905 -119.433075" fill-rule="evenodd"></path><path stroke="#000000" stroke-width="1.0" stroke-linejoin="round" stroke-linecap="butt" d="m427.17847 592.06824l-262.08014 -116.987366" fill-rule="evenodd"></path><path fill="#000000" stroke="#000000" stroke-width="1.0" stroke-linecap="butt" d="m165.77162 473.57257l-4.8172607 -0.34152222l3.4707184 3.3580933z" fill-rule="evenodd"></path><path fill="#000000" fill-opacity="0.0" d="m468.51706 569.1076l-53.95276 -91.87402" fill-rule="evenodd"></path><path stroke="#000000" stroke-width="1.0" stroke-linejoin="round" stroke-linecap="butt" d="m468.51706 569.1076l-50.91446 -86.700165" fill-rule="evenodd"></path><path fill="#000000" stroke="#000000" stroke-width="1.0" stroke-linecap="butt" d="m419.02692 481.571l-3.7223206 -3.0768127l0.87371826 4.749634z" fill-rule="evenodd"></path><path fill="#000000" fill-opacity="0.0" d="m509.85565 592.06824l151.08661 -126.14172" fill-rule="evenodd"></path><path stroke="#000000" stroke-width="1.0" stroke-linejoin="round" stroke-linecap="butt" d="m509.85565 592.06824l146.48083 -122.29639" fill-rule="evenodd"></path><path fill="#000000" stroke="#000000" stroke-width="1.0" stroke-linecap="butt" d="m657.3951 471.0398l2.4249878 -4.176361l-4.5421753 1.6405029z" fill-rule="evenodd"></path><path fill="#000000" fill-opacity="0.0" d="m88.42782 376.1916l0 -215.9055l125.16535 0" fill-rule="evenodd"></path><path stroke="#000000" stroke-width="1.0" stroke-linejoin="round" stroke-linecap="butt" d="m88.42782 376.1916l0 -215.9055l119.16535 0" fill-rule="evenodd"></path><path fill="#000000" stroke="#000000" stroke-width="1.0" stroke-linecap="butt" d="m207.59317 161.93782l4.538101 -1.6517334l-4.538101 -1.6517334z" fill-rule="evenodd"></path><path fill="#000000" fill-opacity="0.0" d="m821.0551 376.1916l0 -208.97636l-164.18896 0" fill-rule="evenodd"></path><path stroke="#000000" stroke-width="1.0" stroke-linejoin="round" stroke-linecap="butt" d="m821.0551 376.1916l0 -208.97636l-158.18896 0" fill-rule="evenodd"></path><path fill="#000000" stroke="#000000" stroke-width="1.0" stroke-linecap="butt" d="m662.86615 165.56349l-4.538086 1.6517334l4.538086 1.6517334z" fill-rule="evenodd"></path><path fill="#000000" fill-opacity="0.0" d="m508.71652 385.37534l0 -63.16443l53.448822 0l0 -69.874954" fill-rule="evenodd"></path><path stroke="#000000" stroke-width="1.0" stroke-linejoin="round" stroke-linecap="butt" d="m508.71652 385.37534l0 -63.16443l53.448822 0l0 -63.87494" fill-rule="evenodd"></path><path fill="#000000" stroke="#000000" stroke-width="1.0" stroke-linecap="butt" d="m563.8171 258.33597l-1.6517334 -4.538101l-1.6517334 4.538101z" fill-rule="evenodd"></path><path fill="#000000" fill-opacity="0.0" d="m380.10236 385.37534l0 -101.05716l-16.661407 0l0 -101.053085" fill-rule="evenodd"></path><path stroke="#000000" stroke-width="1.0" stroke-linejoin="round" stroke-linecap="butt" d="m380.10236 385.37534l0 -101.05716l-16.661407 0l0 -95.053085" fill-rule="evenodd"></path><path fill="#000000" stroke="#000000" stroke-width="1.0" stroke-linecap="butt" d="m365.09268 189.26509l-1.6517334 -4.538101l-1.6517334 4.538101z" fill-rule="evenodd"></path><path fill="#000000" fill-opacity="0.0" d="m202.10428 112.07548c11.159409 -11.159416 22.629196 -22.79889 36.745407 -29.855644c21.501938 -10.748917 47.204697 9.983429 71.19685 11.482941c25.398682 1.5874176 52.161926 -0.26489258 75.79001 9.186348c18.43985 7.3759384 23.664124 33.349495 27.559052 52.82415c4.813629 24.068085 17.601868 52.67691 4.5932007 73.490814c-29.46286 47.14055 -107.620026 95.14308 -153.87402 64.30708c-23.850845 -15.900574 -31.03189 -48.264725 -48.230972 -71.19685c-6.3975525 -8.530075 -19.300217 -9.975021 -29.855652 -11.482941c-2.0839386 -0.29769897 -11.369522 0.19847107 -11.482941 0c-17.426147 -30.495773 5.019562 -76.2164 29.855652 -101.05249" fill-rule="evenodd"></path><path stroke="#000000" stroke-width="3.0" stroke-linejoin="round" stroke-linecap="butt" d="m202.10428 112.07548c11.159409 -11.159416 22.629196 -22.79889 36.745407 -29.855644c21.501938 -10.748917 47.204697 9.983429 71.19685 11.482941c25.398682 1.5874176 52.161926 -0.26489258 75.79001 9.186348c18.43985 7.3759384 23.664124 33.349495 27.559052 52.82415c4.813629 24.068085 17.601868 52.67691 4.5932007 73.490814c-29.46286 47.14055 -107.620026 95.14308 -153.87402 64.30708c-23.850845 -15.900574 -31.03189 -48.264725 -48.230972 -71.19685c-6.3975525 -8.530075 -19.300217 -9.975021 -29.855652 -11.482941c-2.0839386 -0.29769897 -11.369522 0.19847107 -11.482941 0c-17.426147 -30.495773 5.019562 -76.2164 29.855652 -101.05249" fill-rule="evenodd"></path><path fill="#000000" fill-opacity="0.0" d="m493.77847 116.66924c11.872437 -11.872444 29.291534 -22.888344 45.934418 -20.669289c23.959778 3.1946335 47.558838 18.843826 71.194214 13.779526c13.495178 -2.891594 22.106995 -16.793663 34.451416 -22.965881c12.991455 -6.4957275 29.996582 4.7058945 41.338623 13.779526c9.858765 7.887047 12.248047 24.496841 9.18634 36.745407c-2.7600098 11.041519 -12.428101 20.812943 -11.482971 32.15486c2.1746216 26.09552 20.669312 49.60405 20.669312 75.79002c0 6.124237 4.3305054 14.042206 0 18.372711c-6.585327 6.585327 -19.10315 0.6904602 -27.559082 4.59317c-12.375366 5.7117004 -18.627563 23.572021 -32.15222 25.262451c-40.29016 5.035919 -86.90491 16.293762 -121.72443 -4.59317c-5.871643 -3.5222168 -5.3882446 -12.675568 -9.18634 -18.37268c-6.425934 -9.638947 -27.211975 4.45282 -34.44879 -4.5932007c-16.372253 -20.465286 -14.871765 -52.502335 -9.186371 -78.08661c3.358673 -15.114044 -9.434631 -30.662216 -6.88974 -45.934372c1.2645569 -7.5888367 17.525757 3.143509 22.96585 -2.2966003c5.8301086 -5.8300934 9.186371 -14.720871 9.186371 -22.965874" fill-rule="evenodd"></path><path stroke="#000000" stroke-width="3.0" stroke-linejoin="round" stroke-linecap="butt" d="m493.77847 116.66924c11.872437 -11.872444 29.291534 -22.888344 45.934418 -20.669289c23.959778 3.1946335 47.558838 18.843826 71.194214 13.779526c13.495178 -2.891594 22.106995 -16.793663 34.451416 -22.965881c12.991455 -6.4957275 29.996582 4.7058945 41.338623 13.779526c9.858765 7.887047 12.248047 24.496841 9.18634 36.745407c-2.7600098 11.041519 -12.428101 20.812943 -11.482971 32.15486c2.1746216 26.09552 20.669312 49.60405 20.669312 75.79002c0 6.124237 4.3305054 14.042206 0 18.372711c-6.585327 6.585327 -19.10315 0.6904602 -27.559082 4.59317c-12.375366 5.7117004 -18.627563 23.572021 -32.15222 25.262451c-40.29016 5.035919 -86.90491 16.293762 -121.72443 -4.59317c-5.871643 -3.5222168 -5.3882446 -12.675568 -9.18634 -18.37268c-6.425934 -9.638947 -27.211975 4.45282 -34.44879 -4.5932007c-16.372253 -20.465286 -14.871765 -52.502335 -9.186371 -78.08661c3.358673 -15.114044 -9.434631 -30.662216 -6.88974 -45.934372c1.2645569 -7.5888367 17.525757 3.143509 22.96585 -2.2966003c5.8301086 -5.8300934 9.186371 -14.720871 9.186371 -22.965874" fill-rule="evenodd"></path><path fill="#000000" fill-opacity="0.0" d="m229.67192 84.67191l75.779526 0l0 45.921257l-75.779526 0z" fill-rule="evenodd"></path><path fill="#000000" d="m244.56133 108.54504q2.59375 -3.859375 3.265625 -8.390625l1.78125 0.453125q0.59375 0.21875 -0.078125 0.4375q-0.890625 4.453125 -3.328125 8.546875l-1.640625 -1.046875zm12.687485 -8.390625q2.671875 3.5625 4.09375 7.578125l-1.859375 0.8125q-1.34375 -4.15625 -3.6406097 -7.640625l1.4062347 -0.75zm-5.4843597 10.765625q0.296875 0 0.296875 -0.296875l0 -13.5l1.625 0q0.75 0.140625 0.078125 0.59375l0 13.875q0 0.96875 -0.96875 0.96875l-2.078125 0l-0.59375 -1.640625l1.640625 0zm19.812485 -12.984375l5.421875 0l0 5.71875l-9.421875 0l0 0.953125l12.46875 0l0 1.1875l-12.46875 0l0 0.96875l12.234375 0l-0.4375 4.3125q-0.21875 2.296875 -1.859375 2.296875l-2.21875 0l-0.234375 -1.625l-9.203125 0l0 0.8125l-1.484375 0l0 -4.015625l1.421875 0q0.59375 0.078125 0.0625 0.453125l0 1.546875l3.34375 0l0 -2.59375l-1.5625 0l-1.546875 0l0 -10.015625l3.921875 0l0.75 -1.78125l1.703125 0.296875q0.296875 0.296875 -0.21875 0.375l-0.671875 1.109375zm-0.890625 10.015625l0 2.59375l3.34375 0l0 -1.921875l1.40625 0q0.59375 0.078125 0.078125 0.4375l0 2.6875l1.40625 0q0.75 0 0.8125 -0.671875l0.375 -3.125l-7.421875 0zm-3.109375 -5.484375l7.9375 0l0 -1.046875l-7.9375 0l0 1.046875zm0 -2.234375l7.9375 0l0 -1.109375l-7.9375 0l0 1.109375z" fill-rule="nonzero"></path><path fill="#000000" d="m288.45193 111.59191l-1.671875 0l0 -10.640625q-0.59375 0.578125 -1.578125 1.15625q-0.984375 0.5625 -1.765625 0.859375l0 -1.625q1.40625 -0.65625 2.453125 -1.59375q1.046875 -0.9375 1.484375 -1.8125l1.078125 0l0 13.65625z" fill-rule="nonzero"></path><path fill="#000000" fill-opacity="0.0" d="m616.4068 98.32021l75.77954 0l0 45.921257l-75.77954 0z" fill-rule="evenodd"></path><path fill="#000000" d="m631.2962 122.19334q2.59375 -3.859375 3.265625 -8.390625l1.78125 0.453125q0.59375 0.21875 -0.078125 0.4375q-0.890625 4.453125 -3.328125 8.546875l-1.640625 -1.046875zm12.6875 -8.390625q2.671875 3.5625 4.09375 7.578125l-1.859375 0.8125q-1.34375 -4.15625 -3.640625 -7.640625l1.40625 -0.75zm-5.484375 10.765625q0.296875 0 0.296875 -0.296875l0 -13.5l1.625 0q0.75 0.140625 0.078125 0.59375l0 13.875q0 0.96875 -0.96875 0.96875l-2.078125 0l-0.59375 -1.640625l1.640625 0zm19.8125 -12.984375l5.421875 0l0 5.71875l-9.421875 0l0 0.953125l12.46875 0l0 1.1875l-12.46875 0l0 0.96875l12.234375 0l-0.4375 4.3125q-0.21875 2.296875 -1.859375 2.296875l-2.21875 0l-0.234375 -1.625l-9.203125 0l0 0.8125l-1.484375 0l0 -4.015625l1.421875 0q0.59375 0.078125 0.0625 0.453125l0 1.546875l3.34375 0l0 -2.59375l-1.5625 0l-1.546875 0l0 -10.015625l3.921875 0l0.75 -1.78125l1.703125 0.296875q0.296875 0.296875 -0.21875 0.375l-0.671875 1.109375zm-0.890625 10.015625l0 2.59375l3.34375 0l0 -1.921875l1.40625 0q0.59375 0.078125 0.078125 0.4375l0 2.6875l1.40625 0q0.75 0 0.8125 -0.671875l0.375 -3.125l-7.421875 0zm-3.109375 -5.484375l7.9375 0l0 -1.046875l-7.9375 0l0 1.046875zm0 -2.234375l7.9375 0l0 -1.109375l-7.9375 0l0 1.109375z" fill-rule="nonzero"></path><path fill="#000000" d="m677.6712 123.63084l0 1.609375l-8.984375 0q-0.015625 -0.609375 0.1875 -1.15625q0.34375 -0.921875 1.09375 -1.8125q0.765625 -0.890625 2.1875 -2.0625q2.21875 -1.8125 3.0 -2.875q0.78125 -1.0625 0.78125 -2.015625q0 -0.984375 -0.71875 -1.671875q-0.703125 -0.6875 -1.84375 -0.6875q-1.203125 0 -1.9375 0.734375q-0.71875 0.71875 -0.71875 2.0l-1.71875 -0.171875q0.171875 -1.921875 1.328125 -2.921875q1.15625 -1.015625 3.09375 -1.015625q1.953125 0 3.09375 1.09375q1.140625 1.078125 1.140625 2.6875q0 0.8125 -0.34375 1.609375q-0.328125 0.78125 -1.109375 1.65625q-0.765625 0.859375 -2.5625 2.390625q-1.5 1.265625 -1.9375 1.71875q-0.421875 0.4375 -0.703125 0.890625l6.671875 0z" fill-rule="nonzero"></path></g></svg>

